<svg xmlns:xlink="http://www.w3.org/1999/xlink" xmlns="http://www.w3.org/2000/svg" width="400" height="400" viewBox="0 0 400 400" class="ng-scope">
  <g fill-rule="evenodd" transform="translate(3)">
    <polygon points="182.967 394.17 179.851 382.138 175.182 398.064 172.054 397.841 178.315 376.628 181.415 376.85 184.951 389.653 190.27 377.482 193.37 377.704 196.554 399.59 193.425 399.366 191.07 382.91 186.243 394.403"></polygon>
    <g transform="translate(0 .696)">
      <path d="M167.46237 383.480684L160.481429 382.170185C160.343053 383.710077 161.578814 385.146372 163.32368 385.473442 165.360096 385.85601 166.741632 384.911059 167.46237 383.480684L167.46237 383.480684zM168.08839 380.948484C168.470218 378.912068 167.343234 376.894151 164.871711 376.430186 163.126106 376.101636 161.769728 376.750595 161.114849 377.832442L158.890479 376.210412C160.43629 374.392289 162.745018 373.320803 165.508091 373.839527 169.143597 374.522525 171.652118 378.004116 170.860343 382.221244 170.067828 386.438371 166.613616 388.801857 162.832335 388.09148 159.341865 387.43734 156.95248 384.127424 157.744255 379.910296L158.198601 379.091142 168.08839 380.948484zM140.131327 379.495391C142.803384 380.368564 144.881238 378.867891 145.662654 376.477026 146.444069 374.085421 145.652294 371.647938 142.980238 370.774765 140.589373 369.993349 138.257706 371.411145 137.477031 373.80275 136.695615 376.193615 137.740462 378.713976 140.131327 379.495391L140.131327 379.495391zM137.104822 366.365243L139.636283 367.191797 139.549706 368.409059 139.644423 368.596273 139.831637 368.501556C140.951222 367.933254 142.541432 367.828917 143.948128 368.288443 147.605093 369.483505 149.780625 373.308445 148.447926 377.386457 147.115228 381.46521 143.101594 383.268533 139.444629 382.07347 138.037933 381.613945 136.815491 380.590557 136.247189 379.472452L136.152472 379.285238 135.965998 379.379955 135.317038 380.412963 132.785578 379.586408 137.104822 366.365243zM128.461154 377.989391L125.999251 376.971923 126.291542 375.490489 126.210884 375.297355 126.01775 375.378013C124.74573 376.132789 123.424872 376.227506 122.331186 375.77538 121.784343 375.548947 121.510552 375.436471 121.076925 374.936986L122.094393 372.475084 123.734922 373.153642C125.348811 373.819621 127.232052 373.061145 127.94243 371.497574L131.039973 364.005309 133.775667 365.135254 128.461154 377.989391zM118.612359 368.081397L112.255958 364.911337C111.701715 366.355032 112.49793 368.073998 114.086661 368.867253 115.940302 369.791484 117.528293 369.26018 118.612359 368.081397L118.612359 368.081397zM119.907318 365.816329C120.831549 363.962687 120.299506 361.713157 118.048496 360.589872 116.459766 359.798097 114.977593 360.050429 114.051882 360.912502L112.355855 358.74363C114.339733 357.417592 116.854174 357.018745 119.369355 358.273005 122.680751 359.924633 124.139985 363.959727 122.224925 367.799466 120.309865 371.639946 116.34063 372.967464 112.897518 371.249978 109.720058 369.665688 108.326681 365.828168 110.241001 361.988429L110.90254 361.326149 119.907318 365.816329zM93.4086753 356.780102C95.7418221 358.348853 98.1504465 357.47272 99.5541825 355.385246 100.957918 353.297771 100.861721 350.736712 98.5285747 349.167961 96.4418401 347.762745 93.8119626 348.491622 92.4074867 350.578357 91.0037508 352.665091 91.3212008 355.376366 93.4086753 356.780102L93.4086753 356.780102zM94.0798342 343.322144L96.2894049 344.807278 95.8742779 345.954982 95.9142367 346.160695 96.1199502 346.120736C97.3520116 345.880244 98.9104027 346.213974 100.138024 347.039788 103.330284 349.18646 104.379571 353.459826 101.985006 357.019855 99.5904413 360.581363 95.2371579 361.219963 92.0448981 359.07329 90.8172766 358.246736 89.9204247 356.929577 89.6784523 355.697516L89.6384936 355.492542 89.4320401 355.532501 88.5263085 356.349436 86.3167378 354.863562 94.0798342 343.322144zM73.2396461 341.204479C75.3411802 343.07144 77.8460016 342.524597 79.5161292 340.643576 81.1862568 338.763295 81.434149 336.211855 79.331875 334.344894 77.450854 332.674766 74.7477188 333.044755 73.0768512 334.925036 71.4067236 336.806057 71.3586251 339.533611 73.2396461 341.204479L73.2396461 341.204479zM75.7045088 327.956674L77.6950463 329.724479 77.130444 330.807065 77.1430236 331.014998 77.3524371 331.003899C78.6052178 330.929161 80.1051507 331.469344 81.210676 332.452033 84.0877057 335.006433 84.5561111 339.381176 81.7064605 342.588975 78.8575498 345.797515 74.4576479 345.849313 71.5813581 343.294173 70.4972921 342.331463 69.7624952 340.886289 69.6877575 339.633508L69.6751779 339.424095 69.4665045 339.435934 62.981348 346.738025 60.7680774 344.772647 75.7045088 327.956674zM65.2158559 329.915467L60.3445887 324.746729C59.3263806 325.909233 59.4795558 327.798393 60.6975576 329.090393 62.1175731 330.598465 63.7914005 330.648044 65.2158559 329.915467L65.2158559 329.915467zM67.2123132 328.2372C68.7203859 326.817184 68.9978772 324.521776 67.2729913 322.691074 66.0549895 321.398334 64.5765159 321.124543 63.4110525 321.613667L62.5674789 318.99193C64.8873062 318.433247 67.3847278 318.925332 69.3131073 320.972108 71.8497477 323.664883 71.8268084 327.956008 68.7041064 330.898156 65.5806644 333.841784 61.3968357 333.718208 58.7580785 330.917395 56.3228149 328.332657 56.3398343 324.250945 59.4632763 321.307317L60.3120297 320.914389 67.2123132 328.2372zM60.7640815 317.861245L58.2836793 316.44271C59.3403662 315.396382 59.4476628 313.787673 58.5160321 312.637009 57.5851413 311.487085 56.4981154 311.414567 55.808457 311.97399 55.140998 312.512693 55.1683771 313.25267 55.7529588 314.302697 56.000111 314.750383 56.224324 315.215828 56.4300375 315.657594 57.4593452 317.870865 57.3794277 320.030117 55.6545418 321.425713 53.5840868 323.101761 50.8513525 322.077633 49.3617793 320.238051 47.7789689 318.282292 47.647993 315.532538 49.4172775 313.719595L51.2790591 316.020923C50.5886608 316.578865 50.6411991 317.678471 51.3863558 318.599002 52.1307724 319.518793 53.194859 319.799244 53.8852574 319.240562 54.5756557 318.681879 54.5201574 317.813887 54.0103134 316.855617L53.3095554 315.518479C52.2484287 313.407325 52.1988503 311.277672 54.0391725 309.788838 55.8794948 308.298525 58.771324 308.812809 60.5406085 310.9987 62.3091531 313.183852 62.3468919 315.818169 60.7640815 317.861245M44.2757708 313.30358L42.5701244 310.957854 53.8192514 302.77741 55.5256379 305.123137 44.2757708 313.30358zM39.5058805 316.80811L37.7654551 314.415025 40.3982925 312.499965 42.1387179 314.89379 39.5058805 316.80811zM52.0722402 293.504835C51.0340528 291.885766 49.3683651 291.371482 47.998668 292.250575 46.628231 293.128927 46.3507397 294.888592 47.3889272 296.508401 48.4271146 298.12747 50.1423808 298.609195 51.5128178 297.730843 52.8832548 296.85175 53.1104277 295.123904 52.0722402 293.504835M45.0224814 298.025353C43.984294 296.405544 42.0196556 296.083654 40.4005864 297.122582 38.7807773 298.160769 38.2539138 300.081009 39.2921012 301.699338 40.3310286 303.319887 42.295667 303.641777 43.9147362 302.60285 45.5338054 301.565402 46.0606688 299.644423 45.0224814 298.025353M47.9801686 300.172026C48.0460266 302.027888 47.2261323 303.819372 45.4324286 304.970036 42.5672385 306.807398 38.8873339 306.002303 37.0499716 303.137853 36.3314541 302.016048 36.0317635 300.450997 36.4587301 299.473488L36.5038687 299.269254 36.2988951 299.224856 35.1430514 299.614824 34.0249465 297.870698 38.882894 294.755396C40.6765978 293.605472 42.646416 293.607692 44.3061839 294.442386 44.1411691 292.649422 44.8367472 290.937856 46.5061349 289.867109 49.2958473 288.078586 52.5376856 289.51562 54.215213 292.131438 55.8920004 294.747256 55.8453819 298.293225 53.0556694 300.081749 51.3870217 301.151755 49.5245002 301.044459 47.9801686 300.172026M31.8878195 294.175476L30.6424386 291.82013 31.5503901 291.006156 31.6125482 290.804882 31.4120144 290.744204C30.3516277 290.636167 29.1351059 289.60464 28.5816033 288.558312 26.9218353 285.420071 28.0466 282.480143 30.9236298 280.958751L38.5098718 276.945857 39.8936283 279.562415 32.3073864 283.574569C30.6742576 284.538759 30.1614537 285.847778 31.074585 287.574883 31.8915194 289.118475 33.8250787 289.735616 35.3701503 288.985279L42.7995172 285.056002 44.1832737 287.67182 31.8878195 294.175476zM21.2513932 265.547624C22.2289026 268.184162 24.6967251 268.87826 27.0550311 268.002867 29.4133372 267.128215 30.8303927 264.991902 29.8528834 262.356845 28.9774908 259.997799 26.4171712 259.054328 24.0588652 259.928981 21.7005591 260.804373 20.3760007 263.189318 21.2513932 265.547624L21.2513932 265.547624zM29.6530896 255.012575L30.5788006 257.509257 29.5716922 258.198175 29.4843749 258.389089 29.6752889 258.476406C30.8163331 258.99957 31.8863396 260.181313 32.4006234 261.568769 33.7392414 265.174676 32.096493 269.257868 28.0739792 270.749661 24.0507254 272.242934 20.143648 270.219838 18.80503 266.613191 18.2907461 265.225735 18.3314449 263.632565 18.8546084 262.49226L18.9411857 262.301346 18.7510117 262.214029 17.5381897 262.348705 16.6117388 259.851283 29.6530896 255.012575zM15.1474727 255.269569L14.4526345 252.69741 15.5174611 252.103948 15.6225378 251.922654 15.4405036 251.818317C14.4304352 251.477928 13.4714253 250.204428 13.162855 249.061164 12.2364041 245.633591 13.9827493 243.015553 17.1254307 242.16606L25.4109507 239.92837 26.1827465 242.784681 17.8972265 245.02311C16.0916831 245.603252 15.3013879 246.767236 15.8112319 248.652697 16.2670576 250.337624 18.0163627 251.367671 19.6887103 250.976964L27.8032957 248.784412 28.5750915 251.641463 15.1474727 255.269569zM12.2547555 232.469774C12.7379603 235.238767 15.0385482 236.370192 17.5167304 235.937305 19.9941727 235.505159 21.7760368 233.661877 21.2928319 230.892144 20.8599455 228.414701 18.5142191 227.021325 16.0360369 227.453472 13.5585946 227.886358 11.8226091 229.990852 12.2547555 232.469774L12.2547555 232.469774zM22.4294363 223.635191L22.8874819 226.257669 21.7723369 226.752714 21.6517207 226.924388 21.8233953 227.045004C22.8497431 227.767222 23.6881368 229.122859 23.9426888 230.579874 24.6034881 234.370035 22.246662 238.086198 18.0206546 238.823955 13.7931672 239.561712 10.3174963 236.863016 9.65595704 233.072115 9.40658487 231.6447 9.73143468 230.05597 10.452912 229.028882L10.5742682 228.857208 10.4025936 228.736591.78215546 230.415599.273051433 227.50009 22.4294363 223.635191zM7.47235955 215.31948L7.31770441 212.630405 4.36371709 212.801339 1.27431402 210.636907 1.24249502 210.075265 7.15120963 209.735616 6.97953502 206.751289 9.63901158 206.598854 9.81068619 209.58244 16.9018837 209.174713C17.7876359 209.124395 18.3426185 208.469515 18.2923001 207.583763L17.8949325 205.827798 20.5536691 205.674623 20.9428969 207.283332C21.1130916 210.23732 19.7271151 211.917807 17.0683785 212.070242L9.97718097 212.47797 10.1318361 215.167045 7.47235955 215.31948zM12.0261027 200.670974L12.1089801 193.567937C10.5683484 193.698173 9.36810608 195.164067 9.34738673 196.940011 9.32296749 199.011206 10.4921308 200.208488 12.0261027 200.670974L12.0261027 200.670974zM14.629341 200.848568C16.700536 200.872988 18.4934998 199.414493 18.5223589 196.898572 18.5438182 195.123368 17.6699056 193.899446 16.4911226 193.442141L17.7039445 190.970618C19.76182 192.17826 21.2166143 194.266475 21.1840554 197.078387 21.1403967 200.777531 18.1457107 203.849914 13.8545853 203.800336 9.56419992 203.749277 6.6390717 200.755331 6.68347031 196.908932 6.72490901 193.357783 9.57159969 190.431175 13.8612451 190.480754L14.7462573 190.787844 14.629341 200.848568zM19.3759961 181.506759C19.5417509 179.738955 18.4909838 178.273061 17.3565994 177.690699L19.0452265 175.530707C20.9995051 176.873025 22.2767051 179.103315 22.0140133 181.902647 21.6662242 185.61511 18.4044066 188.697854 14.1317806 188.297526 9.85989465 187.896459 7.22779723 184.260953 7.57632629 180.548489 7.83827807 177.749157 9.50544577 175.825217 11.6765376 174.869167L12.9344982 177.305911C11.7113166 177.66702 10.4074775 178.882062 10.2417227 180.649866 9.97977088 183.449198 11.8985307 185.174824 14.4026121 185.409397 16.9074335 185.644709 19.1140443 184.306091 19.3759961 181.506759M.503702196 169.674752L1.02686578 166.761464 10.6384242 168.48561 10.8108388 168.366474 10.6909626 168.194799C9.92286667 167.454822 9.59949682 165.894211 9.80817027 164.728748 10.4356706 161.233837 13.132146 159.612548 16.3362455 160.18751L24.7845604 161.702983 24.2613968 164.616271 15.8138218 163.100799C13.9342808 162.853646 12.7236788 163.568464 12.3788496 165.490924 12.0702793 167.20915 13.2128034 168.887417 14.8910708 169.248526L23.1647512 170.732919 22.6423276 173.646208.503702196 169.674752zM12.0853008 154.892162L12.781619 152.320743 14.0018407 152.345162 14.183135 152.240825 14.0787983 152.059531C13.3773003 151.255916 13.1915661 149.673106 13.5016164 148.530582 14.4295473 145.103009 17.2569986 143.722213 20.39968 144.573926L28.6829801 146.817536 27.9089644 149.673846 19.6256642 147.430236C17.7742423 147.020289 16.5059221 147.62781 15.9945982 149.511791 15.5387725 151.198198 16.5310813 152.968223 18.1723498 153.475107L26.2839753 155.672838 25.5106996 158.529148 12.0853008 154.892162zM29.6706271 136.939438C30.6459165 134.3029 29.2162813 132.195446 26.8564954 131.323754 24.4974494 130.451321 22.0407265 131.121 21.0654371 133.757537 20.0908876 136.394815 21.5205228 138.500789 23.8803088 139.373221 26.2393547 140.245654 28.6960777 139.575975 29.6706271 136.939438M18.5672755 132.834046C19.9021936 129.22518 23.8588494 127.059268 27.8828432 128.548101 31.9075769 130.035454 33.5044468 134.254802 32.1695287 137.863669 30.8353505 141.471795 26.8786947 143.636967 22.853221 142.149614 18.8299672 140.660781 17.2330973 136.442173 18.5672755 132.834046"></path>
      <polygon points="34.203 124.727 36.757 125.54 35.553 128.244 33 127.43 14.885 119.37 16.088 116.666"></polygon>
      <path d="M39.0395471 115.883324C40.3456062 113.393302 39.1979022 111.120094 36.9698321 109.95241 34.741762 108.783987 32.2199211 109.132516 30.9146021 111.622538 29.608543 114.11256 30.756247 116.385028 32.9843171 117.553452 35.2116472 118.721135 37.7334881 118.373346 39.0395471 115.883324M28.5555561 110.385297C30.3426 106.978444 34.5441882 105.338655 38.343969 107.331412 42.1444897 109.32417 43.1856371 113.712972 41.3985931 117.119825 39.6122892 120.527418 35.410701 122.167207 31.6101802 120.17445 27.8096595 118.181692 26.7692521 113.79289 28.5555561 110.385297M51.7308149 105.876322C52.7675224 104.255773 52.5381296 102.527927 51.1669526 101.651055 49.7957757 100.773442 48.0805095 101.257387 47.044542 102.877936 46.0078345 104.498485 46.2875457 106.25815 47.6587227 107.135763 49.0291597 108.012635 50.6941075 107.496871 51.7308149 105.876322M44.6766163 101.363204C45.7133237 99.7426546 45.1842403 97.8231548 43.5636912 96.7864473 41.943142 95.7497399 39.9785037 96.0738497 38.9425362 97.6943988 37.9050887 99.314948 38.4341721 101.234448 40.0554613 102.270415 41.6752704 103.307863 43.6391688 102.983753 44.6766163 101.363204M43.9632787 104.946911C42.3049907 105.783085 40.3351725 105.787525 38.5399888 104.639081 35.6725788 102.805418 34.8645241 99.1255139 36.6989266 96.2588439 37.4159641 95.1370391 38.7124034 94.2098482 39.7794499 94.1898688L39.9836835 94.1447302 39.9385449 93.9404966 39.1016312 93.0532645 40.2175162 91.3083992 45.0791636 94.4185216C46.8743473 95.5669656 47.6957215 97.3569694 47.6313436 99.2135712 49.1912146 98.3144994 51.0374567 98.230142 52.7068443 99.2986685 55.4987767 101.084972 55.5490951 104.630201 53.8745277 107.248239 52.1999602 109.865537 48.9596019 111.305532 46.1676695 109.519968 44.4982819 108.450701 43.8167632 106.715456 43.9632787 104.946911"></path>
      <polygon points="47.226 81.758 49.005 79.393 60.402 97.226 58.622 99.591 54.171 92.612 41.711 89.089 43.508 86.7 52.027 89.259"></polygon>
      <path d="M62.4839356 79.0145729L63.5517221 76.3632361C64.7312451 77.2682277 66.3406946 77.1550113 67.3529828 76.0761251 68.366011 74.997239 68.2897934 73.910953 67.6423137 73.3026921 67.0170333 72.7158905 66.2881562 72.8431665 65.3269264 73.5653839 64.9177192 73.8709943 64.4870527 74.1566253 64.0763656 74.420797 62.02515 75.7416556 59.8755174 75.9562489 58.2564482 74.4370765 56.3147491 72.6145137 56.957049 69.7670831 58.5783381 68.0407172 60.3002641 66.2070548 63.0056192 65.7031306 65.0420353 67.2089833L63.0174588 69.3660156C62.3699791 68.7584947 61.2873931 68.9605084 60.4763786 69.8240613 59.666104 70.6868742 59.5343881 71.7798199 60.1818678 72.3873408 60.8293475 72.9956018 61.6818007 72.8217072 62.5608932 72.1860672L63.7907346 71.3099347C65.7368735 69.9713166 67.8398875 69.6331473 69.5662534 71.2529564 71.2926192 72.8742456 71.1764428 75.8089935 69.2517632 77.8587292 67.3285636 79.9084649 64.7223653 80.3043525 62.4839356 79.0145729M63.7598035 63.0194568L65.7192621 61.1732147 63.6909857 59.0191423 63.363916 55.2615402 63.7731231 54.8760123 67.8311558 59.1848971 70.0074275 57.1351614 71.8336902 59.0746405 69.6581585 61.1236362 74.5272057 66.294594C75.1354666 66.9405937 75.9938397 66.9457736 76.6398394 66.3367727L77.7298252 64.9041776 79.555348 66.8429168 78.5741387 68.174135C76.4193263 70.2031514 74.2415747 70.2216508 72.415312 68.2829116L67.5462647 63.1119539 65.5860662 64.9589359 63.7598035 63.0194568zM90.9557263 57.8425052L88.891931 59.5259524 87.9151617 58.7955953 87.7064882 58.774136 87.6850289 58.9828094C87.7878857 60.0446761 87.0160899 61.4387924 86.0985187 62.1876489 83.346545 64.4319984 80.2438224 63.9066149 78.1866869 61.3840341L72.7611771 54.7338627 75.0551051 52.8632014 80.4798749 59.5133728C81.722296 60.9437479 83.1075325 61.1894202 84.6444643 59.9366395 85.9742026 58.8518335 86.2183949 56.8561161 85.2024068 55.4708796L79.8708741 48.9346647 82.1640621 47.0647433 90.9557263 57.8425052zM92.6097964 42.6050513C90.2803495 44.1782419 90.1893323 46.7400415 91.5967682 48.8245561 93.004204 50.9090707 95.4150484 51.7815034 97.7444953 50.2083127 99.8297498 48.8001369 100.14202 46.0896019 98.7338442 44.0050873 97.3256684 41.9205727 94.6950509 41.1968754 92.6097964 42.6050513L92.6097964 42.6050513zM104.833473 48.2777133L102.626122 49.7687665 101.718171 48.9533121 101.512457 48.9126134 101.472498 49.1190669C101.233486 50.3511282 100.338854 51.6705068 99.1134523 52.4985409 95.9248924 54.6518733 91.570869 54.0206731 89.1689043 50.4643447 86.7669397 46.9080163 87.808827 42.6339104 90.996647 40.4798379 92.1983693 39.6688234 93.7804396 39.3151145 95.013241 39.553387L95.2182145 39.5933458 95.2589133 39.3876322 89.7934447 31.2945061 92.2457278 29.6384381 104.833473 48.2777133zM100.85003 34.3623019L103.354851 32.9001078 110.365391 44.9128909 107.86131 46.374345 100.85003 34.3623019zM97.8398043 29.2653418L100.396424 27.7735486 102.036953 30.5847204 99.4810728 32.0765136 97.8398043 29.2653418zM118.144841 38.2417782C120.658542 36.9830777 121.05517 34.4678966 119.928925 32.2191071 118.802681 29.9695777 116.552411 28.7789551 114.03723 30.0376556 111.524269 31.2963561 111.128381 33.8115372 112.254626 36.0610666 113.380871 38.309856 115.63114 39.5004787 118.144841 38.2417782M112.845127 27.6556703C116.28602 25.9337443 120.654102 27.0570291 122.574342 30.8938087 124.495322 34.7305883 122.777836 38.9018375 119.336944 40.6237634 115.897532 42.3456894 111.528709 41.2224046 109.607729 37.386365 107.686749 33.5488454 109.404975 29.3775963 112.845127 27.6556703M132.293641 30.1381444L134.452154 28.2652632C135.090014 29.6075811 136.573667 30.2395212 137.967043 29.7400369 139.36042 29.2405526 139.786646 28.239364 139.487696 27.4031902 139.198365 26.5958756 138.490947 26.3768424 137.306244 26.581076 136.80306 26.6683933 136.289516 26.7261115 135.803351 26.77421 133.375487 27.0154424 131.36349 26.2273671 130.614634 24.1384127 129.717042 21.6306313 131.585484 19.3892417 133.814294 18.5900667 136.182219 17.7413134 138.820976 18.5256888 139.948701 20.7937176L137.161949 21.7919463C136.862998 20.9557725 135.807791 20.6427623 134.692646 21.0416098 133.578241 21.4411973 132.96184 22.3528487 133.262271 23.1890224 133.561961 24.0251962 134.400355 24.2597688 135.472582 24.095494L136.965115 23.8749809C139.307881 23.5693705 141.335418 24.2264699 142.133853 26.45454 142.933027 28.68409 141.492293 31.2436697 138.845396 32.19158 136.199239 33.1409702 133.698857 32.3070164 132.293641 30.1381444M140.100618 7.75347673L142.955449 6.97354121 145.528348 16.3949256 145.710382 16.4977824 145.813979 16.317228C146.151408 15.3049398 147.422689 14.34297 148.564473 14.0314398 151.989825 13.0961091 154.612303 14.8343146 155.469936 17.974776L157.730565 26.2543763 154.875735 27.0335718 152.615106 18.7547116C152.030524 16.9513882 150.864321 16.1647928 148.98034 16.6790767 147.296153 17.1393423 146.272025 18.8908673 146.666432 20.5632148L148.880443 28.6711404 146.025612 29.450336 140.100618 7.75347673zM165.157194 13.0793116C162.388941 13.5699162 161.264176 15.872724 161.702983 18.3501663 162.142529 20.8276085 163.989511 22.6042928 166.758504 22.1136882 169.235206 21.674882 170.622663 19.3247157 170.183117 16.8472734 169.74431 14.3705711 167.634636 12.6405054 165.157194 13.0793116L165.157194 13.0793116zM174.019896 23.2303131L171.397418 23.6950186 170.898674 22.5820935 170.726999 22.4622172 170.607123 22.6338919C169.888606 23.6624596 168.533708 24.5030732 167.077434 24.7620651 163.289493 25.433224 159.56667 23.0867577 158.818553 18.8614902 158.069697 14.6362228 160.759512 11.153892 164.547453 10.4827331 166.004468 10.2244812 167.564339 10.549331 168.593646 11.2685884L168.765321 11.3884647 168.884457 11.2167901 168.969555 9.99952826 171.592032 9.53482284 174.019896 23.2303131zM184.267983 19.8597929C187.070275 19.63262 188.379294 17.4489485 188.1758 14.9419072 187.973786 12.4341259 186.331038 10.4879869 183.529486 10.7151598 181.021704 10.9171735 179.418915 13.1252642 179.621668 15.6330455 179.824422 18.1408268 181.760201 20.0618066 184.267983 19.8597929L184.267983 19.8597929zM176.406469 8.91553628L179.061506 8.70094301 179.421875 9.85900667 179.611309 9.99220249 179.746724 9.83310749C180.559959 8.87705748 181.987374 8.16667977 183.462148 8.04754351 187.297448 7.73749324 190.780518 10.4258289 191.126087 14.7036347 191.470917 18.9807005 188.465131 22.1921997 184.629831 22.50225 183.184657 22.6191663 181.632185 22.150761 180.676135 21.3375265L180.51704 21.2013708 180.352025 21.3634257 180.952887 28.7964925 178.032198 29.0325451 176.406469 8.91553628zM196.632921 12.7732572L203.735218 12.8265356C203.599062 11.2866439 202.127988 10.0915814 200.352044 10.0782618 198.281589 10.0627223 197.088746 11.2378054 196.632921 12.7732572L196.632921 12.7732572zM196.464946 15.3772355C196.450146 17.4484306 197.91604 19.2347345 200.431221 19.2547139 202.207166 19.2672935 203.427387 18.388941 203.879513 17.2079381L206.356956 18.4104004C205.158193 20.4734556 203.075159 21.9378697 200.263247 21.9164104 196.564103 21.8882913 193.47914 18.9054448 193.511699 14.6143195 193.543518 10.3231941 196.525624 7.38622626 200.372763 7.41508535 203.923912 7.44172452 206.86162 10.2758356 206.829801 14.566961L206.52715 15.4527132 196.464946 15.3772355zM216.727952 10.965272C213.92936 10.6959204 212.228893 12.6139402 211.988401 15.1172817 211.747168 17.6213631 213.051008 19.8287139 215.8496 20.0980654 218.353681 20.3385579 220.319799 18.4456973 220.560292 15.9423558 220.800784 13.4382744 219.232034 11.2057644 216.727952 10.965272L216.727952 10.965272zM222.54565 23.1201306L219.894313 22.8648386 219.713758 21.6586765 219.579823 21.4966215 219.418508 21.6305573C218.449878 22.4282523 216.920346 22.8766782 215.447792 22.7346027 211.617672 22.3668342 208.660725 19.1087165 209.071412 14.8368305 209.482099 10.5656845 213.006609 7.93136715 216.835989 8.29913561 218.278943 8.43825125 219.724858 9.1730482 220.523293 10.1416778L220.656489 10.3029927 220.818544 10.1697969 221.753134.448721921 224.698242.732133029 222.54565 23.1201306zM240.355485 24.1373767C243.091919 24.7811565 245.006979 23.1028891 245.581941 20.653566 246.158383 18.2049828 245.191233 15.8503767 242.454799 15.2065969 240.005476 14.630895 237.803305 16.2418244 237.227603 18.6904076 236.651901 21.1389908 237.906162 23.5624147 240.355485 24.1373767L240.355485 24.1373767zM238.190313 2.95628125L241.042183 3.62670021 238.807453 13.1331819 238.947309 13.3181761 239.124903 13.2071796C240.19195 12.5471203 241.79622 12.3155076 243.208095 12.6477572 246.953858 13.5275896 249.44536 17.1534758 248.46341 21.3306448 247.481461 25.5085537 243.635802 27.6448666 239.890039 26.7642943 238.450045 26.4261249 237.144726 25.5100336 236.483926 24.4429871L236.37367 24.2653927 236.166476 24.3682494 235.636653 25.4604552 233.043774 24.8507143 238.190313 2.95628125z"></path>
      <polygon points="261.044 18.01 263.858 18.926 250.685 35.49 247.871 34.575 253.028 28.099 252.32 15.17 255.162 16.096 255.506 24.984"></polygon>
      <path d="M272.389154 22.2347484L274.848837 23.330654 276.054259 20.6282588 279.393774 18.8774737 279.908058 19.1061265 277.497214 24.5116569 280.227728 25.7296587 279.142922 28.1627024 276.413148 26.9454406 273.520578 33.4320771C273.15947 34.2430916 273.485799 35.0370867 274.297554 35.3981954L276.039459 35.8510612 274.954653 38.2833649 273.347424 37.8904372C270.644289 36.685755 269.788135 34.6833778 270.872201 32.2510741L273.764771 25.7651776 271.305088 24.667792 272.389154 22.2347484zM287.815524 19.9186951L290.424682 21.3150312 285.818326 29.9254011 285.879745 30.1266748 286.079538 30.0652567C287.020049 29.5613325 288.604339 29.737447 289.648446 30.2953895 292.779288 31.9706969 293.488926 35.0364207 291.953474 37.9067907L287.905801 45.4737933 285.296643 44.0774571 289.344316 36.5104545C290.15977 34.7981482 289.85268 33.4254913 288.130754 32.5049602 286.591602 31.681366 284.642503 32.2496682 283.78043 33.7355415L279.816375 41.146409 277.207217 39.7508128 287.815524 19.9186951zM297.365886 40.955273L303.320479 44.8260916C304.035297 43.4556546 303.440356 41.656031 301.951522 40.6888814 300.214797 39.5589368 298.577228 39.9067259 297.365886 40.955273L297.365886 40.955273zM295.822295 43.058287C294.69309 44.7950126 294.966141 47.0896806 297.074335 48.4608575 298.563909 49.4287472 300.064581 49.3458698 301.08205 48.5947933L302.521304 50.9427397C300.399051 52.0349454 297.856491 52.1459419 295.498925 50.61419 292.397682 48.5970133 291.405373 44.4220643 293.74444 40.8235572 296.083506 37.22653 300.177798 36.3585373 303.403357 38.4556315 306.381023 40.3914107 307.329674 44.3621261 304.990607 47.9591533L304.25803 48.542255 295.822295 43.058287z"></path>
      <polygon points="329.711 55.447 324.809 66.868 338.251 57.133 340.588 59.225 322.65 72.164 320.336 70.091 325.378 57.804 313.72 64.169 311.405 62.096 322.287 42.843 324.624 44.935 316.412 59.389 327.263 53.256"></polygon>
      <path d="M335.861624 72.8364328L340.581936 78.1435462C341.634183 77.0099018 341.535026 75.1177812 340.354763 73.7910028 338.977667 72.2429714 337.306799 72.1445545 335.861624 72.8364328L335.861624 72.8364328zM333.817068 74.4569819C332.269777 75.8340787 331.926428 78.119867 333.598035 79.999408 334.778298 81.3261864 336.247892 81.6414165 337.427415 81.1870708L338.195511 83.8310078C335.860884 84.3238323 333.378262 83.7592301 331.509821 81.6591759 329.050878 78.8946227 329.197393 74.6064572 332.403713 71.7538467 335.609292 68.9019762 339.787941 69.1461685 342.345301 72.0202384 344.705087 74.6737951 344.571151 78.7540271 341.364832 81.6058976L340.504239 81.975886 333.817068 74.4569819zM339.962946 85.0106048L342.401909 86.5001781C341.315623 87.5146862 341.162448 89.1204358 342.06004 90.2969989 342.957632 91.472822 344.042438 91.5771588 344.748376 91.0384557 345.430634 90.517512 345.423974 89.7775352 344.870472 88.7112287 344.635899 88.2576229 344.425746 87.7855177 344.231872 87.3370918 343.266942 85.0949621 343.409018 82.9401498 345.173122 81.593392 347.290196 79.9772827 349.993331 81.0798481 351.429626 82.9616091 352.955458 84.9625063 353.006516 87.71374 351.186914 89.4756247L349.39173 87.1224985C350.097668 86.5837954 350.076948 85.48345 349.358431 84.5414595 348.640653 83.600949 347.584707 83.2901588 346.878769 83.8288619 346.172091 84.367565 346.20391 85.2377777 346.684895 86.2093672L347.347174 87.5657446C348.347623 89.7057575 348.335783 91.8376306 346.453282 93.2731856 344.571521 94.7087405 341.695231 94.1123192 339.990325 91.8761094 338.284678 89.6421195 338.322417 87.0070622 339.962946 85.0106048M355.537903 88.9106524L357.035616 91.1483422 359.495299 89.5026339 363.255121 89.7978846 363.568131 90.2655499 358.649505 93.5584466 360.312233 96.0425487 358.098963 97.5247222 356.436235 95.0398801 350.53344 98.9913561C349.796423 99.4849207 349.650648 100.331454 350.144212 101.068471L351.377754 102.37971 349.165223 103.861143 348.013079 102.673481C346.366631 100.213798 346.70702 98.0634253 348.921031 96.5819917L354.822345 92.6305157 353.324632 90.3920859 355.537903 88.9106524zM358.94224 116.975604C359.763614 118.549535 361.442622 119.208854 362.711682 119.081578L362.46749 121.811352C360.096604 121.746234 357.813036 120.568191 356.512156 118.076689 354.787271 114.770473 355.850617 110.40979 359.654098 108.425172 363.459058 106.439814 367.643627 108.061104 369.368513 111.36806 370.669392 113.859562 370.315683 116.381403 369.013324 118.36306L366.633559 117.001503C367.463813 116.033613 367.897439 114.305768 367.075325 112.731097 365.774446 110.238855 363.226706 109.833348 360.995676 110.996591 358.766126 112.159835 357.641361 114.482622 358.94224 116.975604M365.091447 130.30673C366.170333 132.902568 368.652216 133.47383 370.975003 132.508161 373.29705 131.542491 374.642328 129.380279 373.562701 126.78444 372.483815 124.188602 370.002673 123.61734 367.680626 124.583749 365.357839 125.548679 364.012561 127.710891 365.091447 130.30673M376.022384 125.761792C377.500118 129.314421 376.072703 133.592967 372.110867 135.240895 368.148291 136.888083 364.109498 134.882006 362.632504 131.329378 361.155511 127.776749 362.582186 123.498203 366.544022 121.850275 370.506597 120.203827 374.545391 122.209904 376.022384 125.761792M379.461722 143.090865C378.629988 140.404749 376.205825 139.575235 373.80238 140.319651 371.398935 141.063328 369.866443 143.117504 370.697437 145.803619 371.441854 148.206324 373.945935 149.29039 376.34864 148.546713 378.752825 147.803037 380.205399 145.493569 379.461722 143.090865L379.461722 143.090865zM370.493204 153.147149L369.705868 150.603109 370.748496 149.970429 370.846173 149.785434 370.660439 149.687018C369.550473 149.101696 368.547065 147.862975 368.109739 146.449619 366.972394 142.774154 368.837136 138.790119 372.935867 137.521059 377.035339 136.251999 380.8255 138.485989 381.962844 142.161454 382.40091 143.574809 382.271414 145.164279 381.686093 146.274245L381.589156 146.459979 381.77415 146.557656 382.992892 146.490318 383.780227 149.034358 370.493204 153.147149zM374.904131 154.591214L376.492862 156.967279C375.080986 157.431985 374.268491 158.825361 374.588901 160.269796 374.910051 161.71423 375.849822 162.263293 376.717075 162.070159 377.554728 161.884425 377.860339 161.210306 377.80484 160.010064 377.783381 159.49948 377.790041 158.983716 377.80262 158.494591 377.866258 156.055628 378.901486 154.158327 381.067398 153.677342 383.667676 153.099421 385.657474 155.234254 386.171018 157.545201 386.716381 160.001184 385.608636 162.520805 383.216291 163.355499L382.574731 160.465889C383.441984 160.274235 383.88523 159.265647 383.629198 158.110543 383.372426 156.95396 382.543652 156.228782 381.676399 156.421916 380.809886 156.61431 380.472457 157.416445 380.502056 158.501251L380.533875 160.010804C380.543494 162.37281 379.637763 164.301929 377.326815 164.814733 375.015128 165.329017 372.655342 163.578972 372.046341 160.835138 371.4366 158.090564 372.576904 155.714498 374.904131 154.591214M387.401673 164.66289L387.8205 167.323106 390.744148 166.862841 394.031865 168.710563 394.119183 169.266285 388.272626 170.187556 388.738071 173.140804 386.106714 173.555931 385.641269 170.601943 378.625549 171.708209C377.748676 171.846584 377.261031 172.552522 377.398667 173.430135L377.967709 175.138001 375.337092 175.552388 374.790989 173.990297C374.329983 171.066649 375.543545 169.258146 378.173423 168.843759L385.189883 167.737493 384.770316 165.078017 387.401673 164.66289z"></path>
      <polygon points="388.061 191.427 388.161 194.385 380.414 197.312 390.403 199.372 390.502 202.3 376.47 198.926 376.376 196.116 384.296 193.035 376.185 190.496 376.09 187.687 389.862 183.371 389.96 186.299 380.133 189.03"></polygon>
      <path d="M387.584522,211.94193 C387.772476,209.136678 385.806357,207.49245 383.296356,207.324475 C380.785615,207.15576 378.618963,208.523978 378.431009,211.32923 C378.262294,213.838491 380.210653,215.749851 382.721394,215.917086 C385.230655,216.08506 387.415807,214.451932 387.584522,211.94193 L387.584522,211.94193 Z M375.604297,218.109637 L375.781892,215.45238 L376.982874,215.236307 L377.140489,215.098671 L377.002114,214.941056 C376.176299,213.995366 375.684215,212.479893 375.783372,211.0029 C376.039404,207.16464 379.210944,204.113716 383.49245,204.401567 C387.773216,204.687198 390.50891,208.13327 390.252138,211.971529 C390.153721,213.448523 389.463323,214.885558 388.519112,215.712112 L388.360757,215.849008 L388.499133,216.007363 L389.660156,216.381791 L389.481822,219.039048 L375.604297,218.109637 Z"></path>
      <polygon points="387.826 231.324 387.384 234.251 368.882 223.976 369.324 221.051 376.558 225.075 389.195 222.253 388.749 225.209 380.038 227.007"></polygon>
      <polygon points="377.18 234.101 376.472 237.582 372.702 236.815 373.41 233.335"></polygon>
    </g>
  </g>
</svg>